<svg width="141" height="140" viewBox="0 0 141 140" fill="none" xmlns="http://www.w3.org/2000/svg">
<path d="M71.001 34.978H71C52.4516 34.978 37.415 50.0145 37.415 68.563V68.564C37.415 87.1125 52.4516 102.149 71 102.149H71.001C89.5495 102.149 104.586 87.1125 104.586 68.564V68.563C104.586 50.0145 89.5495 34.978 71.001 34.978Z" fill="#FF8046"/>
<path d="M56.2559 68.851L65.9509 78.546L85.7439 58.751" stroke="black" stroke-width="5" stroke-linecap="round" stroke-linejoin="round"/>
<path d="M105.097 107.24C107.972 107.906 110.535 109.527 112.368 111.84C113.779 114.33 114.645 117.091 114.91 119.94" stroke="#BAE0DB" stroke-width="2" stroke-linecap="round" stroke-linejoin="round"/>
<path d="M31.979 84.343C29.862 86.78 24.321 91.154 19.087 89.153C12.545 86.653 12.737 82.803 14.854 81.264C16.971 79.725 19.854 82.226 20.434 84.343C21.014 86.46 20.049 93.579 14.854 96.273C9.659 98.967 2.732 97.62 1 96.273" stroke="#EFE0FF" stroke-width="2" stroke-linecap="round" stroke-linejoin="round"/>
<path d="M115.391 16.2279C112.891 15.9069 107.656 17.3819 106.732 25.8489C105.808 34.3159 98.3952 36.0469 94.8032 35.8539" stroke="#FF8046" stroke-width="2" stroke-linecap="round" stroke-linejoin="round"/>
<path d="M21.1082 55.727C23.6587 55.727 25.7262 53.6594 25.7262 51.109C25.7262 48.5585 23.6587 46.491 21.1082 46.491C18.5578 46.491 16.4902 48.5585 16.4902 51.109C16.4902 53.6594 18.5578 55.727 21.1082 55.727Z" fill="#F99A3D"/>
<path d="M49.0321 18.729C51.1573 18.729 52.8801 17.0062 52.8801 14.881C52.8801 12.7558 51.1573 11.033 49.0321 11.033C46.9069 11.033 45.1841 12.7558 45.1841 14.881C45.1841 17.0062 46.9069 18.729 49.0321 18.729Z" fill="#FFE7EE"/>
<path d="M60.7691 24.476C62.0372 24.476 63.0651 23.4481 63.0651 22.18C63.0651 20.912 62.0372 19.884 60.7691 19.884C59.5011 19.884 58.4731 20.912 58.4731 22.18C58.4731 23.4481 59.5011 24.476 60.7691 24.476Z" fill="#FFE7EE"/>
<path d="M122.126 69.8961C124.411 69.8961 126.263 68.0439 126.263 65.7591C126.263 63.4743 124.411 61.6221 122.126 61.6221C119.841 61.6221 117.989 63.4743 117.989 65.7591C117.989 68.0439 119.841 69.8961 122.126 69.8961Z" fill="#EFE0FF"/>
<path d="M36.116 116.845C38.4008 116.845 40.253 114.993 40.253 112.708C40.253 110.423 38.4008 108.571 36.116 108.571C33.8312 108.571 31.979 110.423 31.979 112.708C31.979 114.993 33.8312 116.845 36.116 116.845Z" fill="#FFE7EE"/>
<path d="M87.6829 128.967C89.9677 128.967 91.8199 127.115 91.8199 124.83C91.8199 122.545 89.9677 120.693 87.6829 120.693C85.3981 120.693 83.5459 122.545 83.5459 124.83C83.5459 127.115 85.3981 128.967 87.6829 128.967Z" fill="#F9D2DD"/>
<path d="M74.8868 122.989C76.1549 122.989 77.1828 121.961 77.1828 120.693C77.1828 119.425 76.1549 118.397 74.8868 118.397C73.6188 118.397 72.5908 119.425 72.5908 120.693C72.5908 121.961 73.6188 122.989 74.8868 122.989Z" fill="#FF8046"/>
</svg>
